# xmcd
#
# Track frame offsets:
#	150
#	13624
#	27423
#	40602
#	53143
#	68155
#	79553
#	93069
#	105067
#	118324
#	131830
#	146111
#	158216
#	171642
#	182677
#	195637
#	206995
#	219440
#	230606
#	241802
#	254474
#	267097
#	280863
#	293559
#	304965
#
# Disc length: 4240 seconds
#
# Revision: 0
# Processed by: cddbd v1.5.1PL2 Copyright (c) Steve Scherf et al.
# Submitted via: audiograbber 1.83.01
#
DISCID=69108e19
DTITLE=raggylug29-cars@yahoo.co.uk - The R&B Years 1947 Disk 1
DYEAR=1947
DGENRE=Blues
TTITLE0=Amos Milburn - Down the Road apiece
TTITLE1=Louis Jordan - Texas and Pacific
TTITLE2=Joe Turner - Miss Brown Blues
TTITLE3=Eddie Vinson - Old Maid Boogie
TTITLE4=Dinah Washington - Blow Top Blues
TTITLE5=Albert Ammons - Swanee River Boogie
TTITLE6=Eddie Vinson - Kidney Stew Blues
TTITLE7=Buddy Banks - Bank's Boogie
TTITLE8=Jack McVea - Open the Door Richard
TTITLE9=Tiny Grimes - Tiny's Boogie Woogie
TTITLE10=Jimmy Rushing - Good  Morning Blues
TTITLE11=Redd Foxx - Shame on You
TTITLE12=Bill Crosby - Hip Chicks Blues
TTITLE13=Joe Lutcher - Rockin' Boogie
TTITLE14=Wynonie Harris - Young and Wild
TTITLE15=Roy Milton - Camille's Boogie
TTITLE16=Rudy Green - Buzzard Pie
TTITLE17=Joe Lutcher - Blues for Sale
TTITLE18=Roy Milton - Red Light
TTITLE19=King Perry - Kilroy was here
TTITLE20=Duke Henderson - 18th and Vine Street Boogie
TTITLE21=Jesse Price - You Can't take it with You
TTITLE22=Wynonie Harris - Mr Blues Jumped a Rabbit
TTITLE23=Paul Gayten - Your Hands ain't Clean
TTITLE24=Roosevelt Sykes - Bobby Sox Blues
EXTD=
EXTT0=
EXTT1=
EXTT2=
EXTT3=
EXTT4=
EXTT5=
EXTT6=
EXTT7=
EXTT8=
EXTT9=
EXTT10=
EXTT11=
EXTT12=
EXTT13=
EXTT14=
EXTT15=
EXTT16=
EXTT17=
EXTT18=
EXTT19=
EXTT20=
EXTT21=
EXTT22=
EXTT23=
EXTT24=
PLAYORDER=
